<?xml version="1.0" encoding="utf-8"?>
<!-- Generator: Adobe Illustrator 25.4.6, SVG Export Plug-In . SVG Version: 6.00 Build 0)  -->
<svg version="1.1" id="Layer_1" xmlns="http://www.w3.org/2000/svg" xmlns:xlink="http://www.w3.org/1999/xlink" x="0px" y="0px"
	 viewBox="0 0 2834.65 2834.65" style="enable-background:new 0 0 2834.65 2834.65;" xml:space="preserve">
<style type="text/css">
	.st0{fill:#4171F8;}
</style>
<g>
	<g>
		<path class="st0" d="M1633.96,1104.65h-537.27c-106.07,0-192.37-63.56-192.37-141.67V641.81c0-78.12,86.3-141.67,192.37-141.67
			h537.27c106.07,0,192.37,63.56,192.37,141.67v321.16C1826.33,1041.1,1740.03,1104.65,1633.96,1104.65z M1096.69,558.23
			c-62.58,0-113.5,37.5-113.5,83.59v321.16c0,46.09,50.92,83.59,113.5,83.59h537.27c62.58,0,113.5-37.5,113.5-83.59V641.81
			c0-46.09-50.92-83.59-113.5-83.59h-537.27V558.23z"/>
	</g>
	<path class="st0" d="M2128.34,1462.17L2128.34,1462.17c-0.64,9.93-7.58,19.05-18.75,24.64L713.9,2184.75
		c-27.72,13.86-65.34,0.01-66.91-24.64l-57.76-902.59c-1.31-20.4,23.63-36.34,50.88-32.5l1453.46,204.64
		C2114.52,1432.61,2129.35,1446.47,2128.34,1462.17z"/>
	<path class="st0" d="M2118.15,1621.39l-15.52,242.54L1960.6,1859l-212.89-7.39c-1.44-0.04-2.89-0.07-4.32-0.07
		c-35.84,0-67.62,15.91-80.94,40.54c-13.32,24.59-5.04,52.26,21.08,70.48l154.71,107.97l195.92,136.75
		c12.72,8.87,28.48,14.63,45.41,16.74l-1.44,22.53c0,69.67-76.7,126.17-171.32,126.17H823.84c-59.47,0-111.9-22.32-142.62-56.21
		c-13.01-14.36-7.62-33.79,11.76-43.48l1358.24-679.22C2080.47,1579.15,2119.81,1595.4,2118.15,1621.39z"/>
	<path class="st0" d="M2156.44,1023.39l-19.86,310.11c-1.24,19.19-25.26,33.13-50.88,29.53L615.62,1156.05
		c-19.47-2.74-33.84-14.95-34.78-29.53l-6.61-103.13c0-69.67,76.7-126.17,171.32-126.17H1985.1
		C2079.73,897.23,2156.44,953.72,2156.44,1023.39z"/>
	<g>
		<path class="st0" d="M2547.4,2097.37l-29.35,50.74l-29.37,50.76c-2.74,4.72-10.32,7.09-19.48,7.09c-9.3,0-20.24-2.43-29.4-7.28
			l-155.27-82.23l-92.8-49.14l-55.07,95.21c-6.87,11.87-22.27,18.44-37.98,18.44c-3.82,0-7.66-0.4-11.41-1.2
			c-6.03-1.29-11.82-3.64-16.82-7.14l-177.98-124.22l-140.55-98.07c-27.19-18.98-8.61-52.34,28.13-52.34c0.71,0,1.42,0.01,2.12,0.04
			l193.41,6.7l129.01,4.48l115.92,4.02c28.66,0.99,47.2,22.73,35.95,42.18l-43.6,75.36l112.4,15.24l188.09,25.51
			C2535.37,2074.53,2552.91,2087.84,2547.4,2097.37z"/>
	</g>
</g>
</svg>
